<svg width="43" height="46" viewBox="0 0 43 46" fill="none" xmlns="http://www.w3.org/2000/svg">
<path d="M16 38.0001C6 41.0001 6 33.0001 2 32.0001M30 44.0001V36.2601C30.075 35.3064 29.9462 34.3477 29.622 33.4477C29.2979 32.5477 28.7859 31.727 28.12 31.0401C34.4 30.3401 41 27.9601 41 17.0401C40.9995 14.2478 39.9254 11.5625 38 9.54012C38.9117 7.09713 38.8472 4.39682 37.82 2.00012C37.82 2.00012 35.46 1.30012 30 4.96012C25.416 3.71776 20.584 3.71776 16 4.96012C10.54 1.30012 8.18 2.00012 8.18 2.00012C7.15275 4.39682 7.08829 7.09713 8 9.54012C6.06025 11.5775 4.98505 14.287 5 17.1001C5 27.9401 11.6 30.3201 17.88 31.1001C17.222 31.7801 16.7145 32.5909 16.3906 33.48C16.0667 34.369 15.9336 35.3163 16 36.2601V44.0001" stroke="#1E1E1E" stroke-width="4" stroke-linecap="round" stroke-linejoin="round"/>
</svg>
